<svg t="1740987789238" class="icon" viewBox="0 0 1024 1024" version="1.1" xmlns="http://www.w3.org/2000/svg" p-id="10047" width="200" height="200"><path d="M917 398.8c0-108-81.8-222.4-189.2-222.4-22.6 0-44.2 3.9-64.3 11C647.2 95.9 562.3 53.2 466.7 53.2c-69.1 0-133 36.8-167.7 96.5C192.8 151 107 238 107 345.2c0 49.8 18.6 95.3 49.1 129.8-27.2 36.9-40.7 81.9-38.1 127.7 5.3 97.6 83.5 177.4 180.5 184.2 34.6 2.5 69.2-4.4 100.2-19.9 30.9 28.4 29.4 26.8 46.9 49.9 55.2 72.9 138.2 126.2 218.1 131.3 2.8 0.2 5.6 0.3 8.5 0.4 0.6-0.1 1.1-0.2 1.8-0.3 12.4-1.9 34.9-6.2 59.8-15.7 47.8-18.2 82.7-46.9 101.4-83.4 49.1-82.9 46.2-199.1-10.2-283.9 57.2-35.9 92.1-98.8 92-166.5z m-90.9 208.4c0.6 1.2 1.2 2.5 1.7 3.7 1.5 3.3 2.9 6.7 4.2 10.1 0.3 0.7 0.5 1.4 0.8 2.1 1.2 2.9 2.3 6 3.3 9 0.7 2.1 1.3 4.2 2 6.3 0.6 2.1 1.3 4.3 1.9 6.5 0.4 1.3 0.8 2.6 1.1 3.9 1 3.9 1.9 7.9 2.8 11.8 0.3 1.3 0.5 2.6 0.8 3.9 0.4 2.4 0.9 4.8 1.3 7.2 0.3 1.8 0.5 3.5 0.8 5.3l0.9 6.9c0.7 5.6 1.2 11.1 1.5 16.6 0.1 1.3 0.1 2.7 0.2 4 0.1 2.7 0.2 5.4 0.2 8.1 0.1 10.7-0.4 21.3-1.5 31.9-0.5 3.9-1 7.9-1.6 11.8s-1.3 7.8-2.1 11.7c-0.2 1.3-0.5 2.6-0.8 3.9-0.8 3.9-1.8 7.7-2.8 11.5s-2.2 7.6-3.4 11.3c-0.8 2.5-1.7 4.9-2.6 7.4-2.2 6.2-4.7 12.2-7.5 18.1-19.9-17.3-48.5-45.9-72.7-78-30.2-40-47.4-76.7-49.7-106.3 0-0.9 0-2.3-0.1-4.1 0-0.7-0.1-1.5-0.1-2.3-0.1-3-0.3-6.7-0.6-11.1-0.1-1.2-0.2-2.5-0.3-3.9-0.2-2.7-0.4-5.7-0.7-8.8-0.1-1.5-0.2-3.1-0.4-4.8-0.2-2.5-0.5-5.1-0.8-7.8-0.4-3.6-0.9-7.3-1.4-11.2-0.4-2.9-0.8-5.9-1.3-9-0.2-1-0.3-2.1-0.5-3.1-0.3-2-0.6-4.2-1-6.3-0.3-2.1-0.7-4.3-1.1-6.5s-0.8-4.4-1.2-6.7c-0.4-2.2-0.8-4.5-1.3-6.8-0.8-3.5-1.5-7-2.3-10.5-0.6-2.3-1.1-4.7-1.7-7.1l-1.8-7.2c-0.6-2.4-1.2-4.9-1.9-7.3-0.7-2.4-1.4-4.8-2.1-7.3-2.5-8.6-5.3-17.3-8.5-26-0.9-2.4-1.8-4.9-2.8-7.4-1.5-3.7-3-7.4-4.6-11.1-1.5-3.5-3.7-6.5-6.4-8.9-0.9-0.8-1.8-1.5-2.8-2.2-1-0.7-2-1.3-3.1-1.8-3.2-1.6-6.8-2.4-10.5-2.4-2.1 0-4.1 0.2-6 0.7-0.8 0.2-1.6 0.4-2.3 0.7-1.1 0.4-2.2 0.9-3.2 1.4-0.7 0.4-1.4 0.8-2 1.2-1 0.7-1.9 1.4-2.8 2.1-0.6 0.5-1.2 1-1.7 1.6-0.8 0.8-1.5 1.7-2.2 2.6-0.5 0.6-0.9 1.2-1.3 1.9-2 3.3-3.2 7.2-3.5 11.4-0.2 3.2-0.4 6.4-0.6 9.4s-0.4 6-0.6 8.8c-0.3 2.9-0.5 5.6-0.7 8.3-0.2 1.5-0.3 2.9-0.4 4.3-0.3 3.6-0.6 7.1-0.9 10.4-0.6 6.1-1.1 11.6-1.7 16.6-0.4 3.6-0.8 7-1.2 10.1-0.8 6.1-1.6 11.2-2.3 15.6-0.2 0.9-0.3 1.9-0.5 2.8-0.4 2.3-0.8 4.4-1.2 6.2-1.4-1.5-2.8-3.1-4.1-4.6-2.7-3-5.3-6-7.8-9-1.3-1.5-2.6-2.9-3.8-4.4-9.9-11.7-18.7-22.7-26.7-33.2-2-2.7-4-5.2-5.9-7.8-2.9-3.8-5.6-7.6-8.3-11.3-1.8-2.5-3.5-4.9-5.2-7.3-1.7-2.4-3.4-4.7-5-7.1-4.9-7-9.5-13.9-13.9-20.5-2.2-3.3-4.4-6.6-6.5-9.8-1.4-2.1-2.8-4.3-4.2-6.4-15.5-23.7-30.2-46-48.9-68.5-0.4-0.4-0.7-0.8-1-1.1-0.7-0.7-1.4-1.4-2.1-2-1.1-1-2.2-1.8-3.4-2.5-0.8-0.5-1.6-0.9-2.4-1.3-1.3-0.5-2.6-1-3.9-1.4l-2.7-0.6c-1.3-0.2-2.7-0.3-4.1-0.3-6.3 0-12.1 2.4-16.5 6.4-1.1 1-2.1 2.1-3 3.3-0.9 1.2-1.7 2.5-2.4 3.8l-0.9 2.1c-0.8 2.1-1.4 4.4-1.6 6.8-0.1 1.3-0.2 2.7-0.3 4.1-0.1 2.7-0.2 5.5-0.2 8.3 0 5.6 0.3 11.2 0.9 16.9 0.2 1.4 0.3 2.8 0.5 4.2 0.4 2.8 0.8 5.7 1.3 8.5 0.3 1.5 0.5 2.9 0.8 4.3 3.3 17 8.8 34.1 15.5 50.6 1.7 4.1 3.5 8.2 5.3 12.3 5.5 12.1 11.6 23.9 17.8 35.1 0.7 1.2 1.4 2.5 2.1 3.7 7.7 13.4 15.6 26 23.1 37.1 2 3 4 6 6 8.8 3.9 5.6 7.6 10.8 11 15.5 4.5 6.2 8.5 11.6 11.7 15.8 0.8 1.1 1.5 2.1 2.2 3 1.3 2.2 2.6 4.8 3.8 7.5-13.5-6.5-27.6-15-41.3-24.1l-6.3-4.2c-3.1-2.1-6.2-4.3-9.2-6.4-14.2-9.9-27.4-19.9-38.2-28.2-5.7-4.3-11.1-8.4-15.7-11.8-1.1-0.9-2.2-1.6-3.4-2.2-3.6-1.8-7.6-2.8-11.7-2.8h-1.5c-2 0.2-4 0.5-5.9 1.1-1.6 0.5-3.2 1.2-4.7 2-1 0.6-1.9 1.1-2.8 1.8-0.9 0.7-1.8 1.4-2.6 2.2-1 1.1-2 2.2-2.9 3.4-0.1 0.1-0.2 0.3-0.3 0.4-0.4 0.5-0.7 1.1-1 1.6l-0.6 1.2-0.6 1.2c-0.4 1-0.8 2-1.1 3.1-0.5 1.5-0.8 3.1-0.9 4.7-0.1 0.5-0.1 1-0.1 1.5 0 1.5 0.1 2.9 0.3 4.4 0.2 1.4 0.6 2.9 1.1 4.3 9.7 27.4 24.8 50.8 41 69.9 1.4 1.7 2.9 3.4 4.4 5.1 12.6 14.2 25.7 25.9 37.1 34.9 1.4 1.1 2.7 2.1 4 3.1 0.6 0.5 1.3 1 1.9 1.5 1.2 1 2.5 2 3.7 2.8 1.2 0.8 2.4 1.7 3.5 2.5 9.2 6.5 16.2 10.7 19.3 12.5C603.9 793.8 634 884.2 645.5 925.7c-2.2-0.3-4.5-0.7-6.7-1.2-2.9-0.5-5.8-1.2-8.7-1.9-4.8-1.1-9.6-2.5-14.4-4-4.3-1.3-8.7-2.9-13-4.5-1.5-0.5-2.9-1.1-4.4-1.7-7.7-3-15.4-6.6-23.1-10.5-6.6-3.4-13.2-7.1-19.7-11.1-35.5-21.8-68.1-51.6-94.3-86.1l-1.4-1.9c-16.2-21.4-17.1-22.3-44.8-47.9l-13.2-12.1-12.3 6.2c-3 1.5-6 2.9-9.1 4.2-3 1.3-6.2 2.6-9.3 3.7-1.5 0.5-3.1 1.1-4.7 1.6-3.2 1.1-6.4 2-9.6 2.9-3.3 0.9-6.5 1.6-9.8 2.3-1.6 0.3-3.3 0.6-4.9 0.9-3.3 0.6-6.6 1.1-9.9 1.5s-6.7 0.7-10 0.9c-1.7 0.1-3.3 0.2-5 0.2-1.7 0.1-3.3 0.1-5 0.1-2.1 0-4.1 0-6.2-0.1-2.1 0-4.1-0.1-6.2-0.3-9.2-0.6-18.3-2-27.2-4.1-3.8-0.9-7.6-1.9-11.3-3.1-27.4-8.5-52.6-23.8-73.3-44.9-19.8-20.1-34.2-44.4-42.5-70.6-2.3-7.5-4.2-15.1-5.5-22.9-0.4-2.6-0.8-5.2-1.1-7.8-0.5-3.9-0.9-7.8-1.1-11.8-0.3-5.1-0.4-10.2-0.2-15.3 0.6-19.1 4.3-38 10.9-55.8 0.9-2.4 1.8-4.8 2.8-7.1 5.4-12.9 12.3-25.1 20.7-36.4l9.6-13-10.7-12.1c-28.4-32.3-44-73.7-44-116.7 0-14.6 1.7-28.8 5.1-42.6 7.5-30.3 23-58.2 45.3-80.9 8.2-8.3 17-15.6 26.3-22 1.1-0.7 2.3-1.5 3.5-2.3 9.5-6.2 19.5-11.3 29.9-15.5 2.6-1 5.2-2 7.9-2.9 10.7-3.7 21.6-6.3 32.9-7.8 1.4-0.2 2.8-0.3 4.2-0.5 5.6-0.7 11.3-1 17.1-1.1l11.3-0.1 5.7-9.8c31.1-53.4 88.7-86.5 150.5-86.6 45.9 0 86.6 10.3 117.5 29.7 32.8 20.6 52.8 50.2 59.5 88l4.1 23.3 22.2-7.9c18.5-6.6 37.9-9.9 57.7-9.9 1.4 0 2.8 0 4.1 0.1 42.6 1.4 83.4 23.7 115.2 63 31.7 39.4 49.9 90.1 49.9 139.2 0 29.8-7.6 59.4-22 85.5-3.6 6.5-7.6 12.8-12 18.8-5.5 7.5-11.6 14.5-18.2 21-9.3 9.1-19.5 17.2-30.6 24.1L796.5 559l11.4 17.2c4.4 6.7 8.6 13.7 12.3 20.8 0.6 1.2 1.3 2.4 2.4 2.9 1.2 2.4 2.4 4.9 3.5 7.3z" fill="#49BA5A" p-id="10048"></path><path d="M722.8 231.8c1.1 0 2.2 0.2 3.3 0.5-1.1-0.4-2.3-0.5-3.3-0.5zM713 240.3c-0.8 4.8 2 9.5 6.6 11-4.5-1.6-7.3-6.2-6.6-11zM852.4 342.9c0.9 1.8 1.2 3.9 0.9 5.9v0.1c-0.8 5.4-5.3 8.4-9.8 8.5 4.5 0 9.1-3.1 9.9-8.5v-0.1c0.3-2 0-4.1-0.9-5.9-23.9-47.9-64.7-86.5-116-106.8 51.3 20.3 92.1 58.9 115.9 106.8z" fill="#609417" p-id="10049"></path><path d="M820.2 597c-3.7-7.1-7.9-14.1-12.3-20.8L796.5 559l17.5-10.9c11.1-6.9 21.3-15 30.6-24.1 6.6-6.5 12.7-13.5 18.2-21 4.4-6 8.4-12.3 12-18.8 14.4-26.1 22-55.7 22-85.5 0-49.1-18.2-99.8-49.9-139.2-31.8-39.3-72.6-61.7-115.2-63-1.4 0-2.8-0.1-4.1-0.1-19.8 0-39.2 3.3-57.7 9.9l-22.2 7.9-4.1-23.3c-6.7-37.8-26.7-67.4-59.5-88-30.9-19.4-71.6-29.7-117.5-29.7-61.8 0.1-119.4 33.2-150.5 86.6l-5.7 9.8-11.3 0.1c-5.8 0.1-11.5 0.4-17.1 1.1-1.4 0.2-2.8 0.3-4.2 0.5-11.3 1.5-22.2 4.1-32.9 7.8-2.7 0.9-5.3 1.9-7.9 2.9-10.4 4.2-20.4 9.3-29.9 15.5-1.2 0.8-2.4 1.6-3.5 2.3-9.3 6.4-18.1 13.7-26.3 22-22.3 22.7-37.8 50.6-45.3 80.9-3.4 13.8-5.1 28-5.1 42.6 0 43 15.6 84.4 44 116.7l10.7 12.1-9.6 13c-8.4 11.3-15.3 23.5-20.7 36.4-1 2.3-1.9 4.7-2.8 7.1-6.6 17.8-10.3 36.7-10.9 55.8-0.2 5.1-0.1 10.2 0.2 15.3 0.2 4 0.6 7.9 1.1 11.8 0.3 2.6 0.7 5.2 1.1 7.8 1.3 7.8 3.2 15.4 5.5 22.9 8.3 26.2 22.7 50.5 42.5 70.6 20.7 21.1 45.9 36.4 73.3 44.9 3.7 1.2 7.5 2.2 11.3 3.1 8.9 2.1 18 3.5 27.2 4.1 2.1 0.2 4.1 0.3 6.2 0.3 2.1 0.1 4.1 0.1 6.2 0.1 1.7 0 3.3 0 5-0.1 1.7 0 3.3-0.1 5-0.2 3.3-0.2 6.7-0.5 10-0.9s6.6-0.9 9.9-1.5c1.6-0.3 3.3-0.6 4.9-0.9 3.3-0.7 6.5-1.4 9.8-2.3 3.2-0.9 6.4-1.8 9.6-2.9 1.6-0.5 3.2-1.1 4.7-1.6 3.1-1.1 6.3-2.4 9.3-3.7 3.1-1.3 6.1-2.7 9.1-4.2l12.3-6.2 13.2 12.1c27.7 25.6 28.6 26.5 44.8 47.9l1.4 1.9c26.2 34.5 58.8 64.3 94.3 86.1 6.5 4 13.1 7.7 19.7 11.1 7.7 3.9 15.4 7.5 23.1 10.5 1.5 0.6 2.9 1.2 4.4 1.7 4.3 1.6 8.7 3.2 13 4.5 4.8 1.5 9.6 2.9 14.4 4 2.9 0.7 5.8 1.4 8.7 1.9 2.2 0.5 4.5 0.9 6.7 1.2-11.5-41.5-41.6-131.9-152.3-220.8-3.1-1.8-10.1-6-19.3-12.5-1.1-0.8-2.3-1.7-3.5-2.5s-2.5-1.8-3.7-2.8c-0.6-0.5-1.3-1-1.9-1.5-1.3-1-2.6-2-4-3.1-11.4-9-24.5-20.7-37.1-34.9-1.5-1.7-3-3.4-4.4-5.1-16.2-19.1-31.3-42.5-41-69.9-0.5-1.4-0.9-2.9-1.1-4.3-0.2-1.5-0.3-2.9-0.3-4.4 0-0.5 0-1 0.1-1.5 0.1-1.6 0.4-3.2 0.9-4.7 0.3-1.1 0.7-2.1 1.1-3.1l0.6-1.2 0.6-1.2c0.3-0.5 0.6-1.1 1-1.6 0.1-0.1 0.2-0.3 0.3-0.4 0.9-1.2 1.9-2.3 2.9-3.4 0.8-0.8 1.7-1.5 2.6-2.2s1.8-1.2 2.8-1.8c1.5-0.8 3.1-1.5 4.7-2 1.9-0.6 3.9-0.9 5.9-1.1h1.5c4.1 0 8.1 1 11.7 2.8 1.2 0.6 2.3 1.3 3.4 2.2 4.6 3.4 10 7.5 15.7 11.8 10.8 8.3 24 18.3 38.2 28.2 3 2.1 6.1 4.3 9.2 6.4l6.3 4.2c13.7 9.1 27.8 17.6 41.3 24.1-1.2-2.7-2.5-5.3-3.8-7.5-0.7-0.9-1.4-1.9-2.2-3-3.2-4.2-7.2-9.6-11.7-15.8-3.4-4.7-7.1-9.9-11-15.5-2-2.8-4-5.8-6-8.8-7.5-11.1-15.4-23.7-23.1-37.1-0.7-1.2-1.4-2.5-2.1-3.7-6.2-11.2-12.3-23-17.8-35.1-1.8-4.1-3.6-8.2-5.3-12.3-6.7-16.5-12.2-33.6-15.5-50.6-0.3-1.4-0.5-2.8-0.8-4.3-0.5-2.8-0.9-5.7-1.3-8.5-0.2-1.4-0.3-2.8-0.5-4.2-0.6-5.7-0.9-11.3-0.9-16.9 0-2.8 0.1-5.6 0.2-8.3 0.1-1.4 0.2-2.8 0.3-4.1 0.2-2.4 0.8-4.7 1.6-6.8l0.9-2.1c0.7-1.3 1.5-2.6 2.4-3.8 0.9-1.2 1.9-2.3 3-3.3 4.4-4 10.2-6.4 16.5-6.4 1.4 0 2.8 0.1 4.1 0.3l2.7 0.6c1.3 0.4 2.6 0.9 3.9 1.4 0.8 0.4 1.6 0.8 2.4 1.3 1.2 0.7 2.3 1.5 3.4 2.5 0.7 0.6 1.4 1.3 2.1 2 0.3 0.3 0.6 0.7 1 1.1 18.7 22.5 33.4 44.8 48.9 68.5 1.4 2.1 2.8 4.3 4.2 6.4 2.1 3.2 4.3 6.5 6.5 9.8 4.4 6.6 9 13.5 13.9 20.5 1.6 2.4 3.3 4.7 5 7.1s3.4 4.8 5.2 7.3c2.7 3.7 5.4 7.5 8.3 11.3 1.9 2.6 3.9 5.1 5.9 7.8 8 10.5 16.8 21.5 26.7 33.2 1.2 1.5 2.5 2.9 3.8 4.4 2.5 3 5.1 6 7.8 9 1.3 1.5 2.7 3.1 4.1 4.6 0.4-1.8 0.8-3.9 1.2-6.2 0.2-0.9 0.3-1.9 0.5-2.8 0.7-4.4 1.5-9.5 2.3-15.6 0.4-3.1 0.8-6.5 1.2-10.1 0.6-5 1.1-10.5 1.7-16.6 0.3-3.3 0.6-6.8 0.9-10.4 0.1-1.4 0.2-2.8 0.4-4.3 0.2-2.7 0.4-5.4 0.7-8.3 0.2-2.8 0.4-5.8 0.6-8.8s0.4-6.2 0.6-9.4c0.3-4.2 1.5-8.1 3.5-11.4 0.4-0.7 0.8-1.3 1.3-1.9 0.7-0.9 1.4-1.8 2.2-2.6 0.5-0.6 1.1-1.1 1.7-1.6 0.9-0.7 1.8-1.4 2.8-2.1 0.6-0.4 1.3-0.8 2-1.2 1-0.5 2.1-1 3.2-1.4 0.7-0.3 1.5-0.5 2.3-0.7 1.9-0.5 3.9-0.7 6-0.7 3.7 0 7.3 0.8 10.5 2.4 1.1 0.5 2.1 1.1 3.1 1.8s1.9 1.4 2.8 2.2c2.7 2.4 4.9 5.4 6.4 8.9 1.6 3.7 3.1 7.4 4.6 11.1 1 2.5 1.9 5 2.8 7.4 3.2 8.7 6 17.4 8.5 26 0.7 2.5 1.4 4.9 2.1 7.3 0.7 2.4 1.3 4.9 1.9 7.3l1.8 7.2c0.6 2.4 1.1 4.8 1.7 7.1 0.8 3.5 1.5 7 2.3 10.5 0.5 2.3 0.9 4.6 1.3 6.8 0.4 2.3 0.8 4.5 1.2 6.7s0.8 4.4 1.1 6.5c0.4 2.1 0.7 4.3 1 6.3 0.2 1 0.3 2.1 0.5 3.1 0.5 3.1 0.9 6.1 1.3 9 0.5 3.9 1 7.6 1.4 11.2 0.3 2.7 0.6 5.3 0.8 7.8 0.2 1.7 0.3 3.3 0.4 4.8 0.3 3.1 0.5 6.1 0.7 8.8 0.1 1.4 0.2 2.7 0.3 3.9 0.3 4.4 0.5 8.1 0.6 11.1 0 0.8 0.1 1.6 0.1 2.3 0.1 1.8 0.1 3.2 0.1 4.1 2.3 29.6 19.5 66.3 49.7 106.3 24.2 32.1 52.8 60.7 72.7 78 2.8-5.9 5.3-11.9 7.5-18.1 0.9-2.5 1.8-4.9 2.6-7.4 1.2-3.7 2.4-7.5 3.4-11.3s2-7.6 2.8-11.5c0.3-1.3 0.6-2.6 0.8-3.9 0.8-3.9 1.5-7.8 2.1-11.7s1.1-7.9 1.6-11.8c1.1-10.6 1.6-21.2 1.5-31.9 0-2.7-0.1-5.4-0.2-8.1-0.1-1.3-0.1-2.7-0.2-4-0.3-5.5-0.8-11-1.5-16.6l-0.9-6.9c-0.3-1.8-0.5-3.5-0.8-5.3-0.4-2.4-0.9-4.8-1.3-7.2-0.3-1.3-0.5-2.6-0.8-3.9-0.9-3.9-1.8-7.9-2.8-11.8-0.3-1.3-0.7-2.6-1.1-3.9-0.6-2.2-1.3-4.4-1.9-6.5-0.7-2.1-1.3-4.2-2-6.3-1-3-2.1-6.1-3.3-9-0.3-0.7-0.5-1.4-0.8-2.1-1.3-3.4-2.7-6.8-4.2-10.1-0.5-1.2-1.1-2.5-1.7-3.7-1.1-2.4-2.3-4.9-3.5-7.3-1.1-0.5-1.8-1.7-2.4-2.9z" fill="#7BE085" p-id="10050"></path><path d="M729.1 254.8c-3.1-1.2-6.3-2.4-9.4-3.5-4.6-1.5-7.4-6.2-6.6-11 0.7-5 5-8.5 9.7-8.5 1.1 0 2.2 0.1 3.3 0.5 3.5 1.2 7 2.5 10.4 3.8 51.3 20.3 92.2 58.9 116.1 106.8 0.9 1.8 1.2 3.9 0.9 5.9v0.1c-0.8 5.4-5.4 8.4-9.9 8.5-3.5 0.1-7.1-1.7-9-5.5-21.7-43.5-58.9-78.7-105.5-97.1z" fill="#9CCB3F" p-id="10051"></path><path d="M834.5 351.9c1.9 3.8 5.5 5.6 9 5.5 4.5-0.1 9-3.1 9.8-8.5v-0.1c0.3-2 0-4.1-0.9-5.9-23.8-47.9-64.7-86.5-116-106.8-3.4-1.4-6.9-2.6-10.4-3.8-1.1-0.4-2.2-0.5-3.3-0.5-4.7 0.1-9 3.6-9.7 8.5-0.7 4.8 2.1 9.4 6.6 11 3.2 1.1 6.3 2.2 9.4 3.5 46.7 18.4 83.9 53.6 105.5 97.1z" fill="#FFFFFF" p-id="10052"></path></svg>